<?xml version="1.0" encoding="utf-8"?>
<!-- Generator: Adobe Illustrator 27.5.0, SVG Export Plug-In . SVG Version: 6.00 Build 0)  -->
<svg version="1.1" id="Layer_1" xmlns="http://www.w3.org/2000/svg" xmlns:xlink="http://www.w3.org/1999/xlink" x="0px" y="0px"
	 viewBox="0 0 44 16" style="enable-background:new 0 0 44 16;" xml:space="preserve">
<style type="text/css">
	.st0{display:none;}
	.st1{display:inline;}
	.st2{fill:#C61D67;}
	.st3{fill:#E60884;}
	.st4{fill:#818899;}
	.st5{fill:#99A0B5;}
	.st6{fill:#009980;}
	.st7{fill:#00B499;}
	.st8{fill:#DF8026;}
	.st9{fill:#F0A61E;}
	.st10{fill:#C80065;}
	.st11{fill:#E90085;}
	.st12{fill:#83899A;}
	.st13{fill:#9BA2B6;}
	.st14{fill:#009A80;}
	.st15{fill:#00B69B;}
	.st16{fill:#E18000;}
	.st17{fill:#F3A700;}
</style>
<g class="st0">
	<g class="st1">
		<g>
			
				<rect x="2.6" y="4.1" transform="matrix(-1 -9.038383e-11 9.038383e-11 -1 7.4639 12.1147)" class="st2" width="2.3" height="3.9"/>
			<circle class="st3" cx="2.6" cy="6.1" r="1.9"/>
		</g>
		<g>
			
				<rect x="2.6" y="11.9" transform="matrix(-1 -8.921987e-11 8.921987e-11 -1 7.4639 27.6559)" class="st4" width="2.3" height="3.9"/>
			<circle class="st5" cx="2.6" cy="13.8" r="1.9"/>
		</g>
	</g>
	<g class="st1">
		<g>
			<rect x="4.9" y="0.2" class="st6" width="2.3" height="3.9"/>
			<circle class="st7" cx="7.2" cy="2.2" r="1.9"/>
		</g>
		<g>
			<rect x="4.9" y="8" class="st8" width="2.3" height="3.9"/>
			<circle class="st9" cx="7.2" cy="9.9" r="1.9"/>
		</g>
	</g>
</g>
<g>
	<g>
		<g>
			<g>
				<g>
					
						<rect x="2.8" y="4.1" transform="matrix(-1 -2.896777e-10 2.896777e-10 -1 7.953 12.1082)" class="st10" width="2.3" height="3.9"/>
					<circle class="st11" cx="2.8" cy="6.1" r="1.9"/>
				</g>
				<g>
					
						<rect x="2.8" y="11.9" transform="matrix(-1 -2.912267e-10 2.912267e-10 -1 7.953 27.6753)" class="st12" width="2.3" height="3.9"/>
					<circle class="st13" cx="2.8" cy="13.8" r="1.9"/>
				</g>
			</g>
			<g>
				<g>
					<rect x="5.2" y="0.2" class="st14" width="2.3" height="3.9"/>
					<circle class="st15" cx="7.5" cy="2.2" r="1.9"/>
				</g>
				<g>
					<rect x="5.2" y="8" class="st16" width="2.3" height="3.9"/>
					<circle class="st17" cx="7.5" cy="9.9" r="1.9"/>
				</g>
			</g>
		</g>
		<g>
			<g>
				<g>
					<path class="st12" d="M13.4,5.8h0.8c0.5,0,0.8-0.1,1-0.2c0.1-0.2,0.2-0.5,0.2-1h0.3c0,0.3,0,0.5,0,0.8s0,0.5,0,0.8
						c0,0.3,0,0.5,0,0.8c0,0.3,0,0.5,0,0.7l-0.3,0c0-0.6-0.1-1-0.2-1.2c-0.1-0.2-0.5-0.3-1-0.3h-0.8v2.6c0,0.4,0.1,0.6,0.2,0.7
						c0.1,0.1,0.3,0.1,0.7,0.1h0.2V10h-2.9V9.6h0.1c0.3,0,0.5,0,0.6-0.1c0.1-0.1,0.1-0.3,0.1-0.7V3.4c0-0.4,0-0.6-0.1-0.7
						c-0.1-0.1-0.3-0.1-0.6-0.1h-0.1V2.2h5.7v0.5c0,0.3,0,0.7,0,1.4c0,0.1,0,0.1,0,0.2h-0.3c0-0.6-0.1-1.1-0.4-1.3
						c-0.3-0.2-0.8-0.4-1.5-0.4h-1.7V5.8z"/>
					<path class="st12" d="M17.5,7.2v0.2c0,0.7,0.1,1.2,0.4,1.6c0.3,0.4,0.7,0.5,1.3,0.5c0.4,0,0.7-0.1,1-0.3
						c0.3-0.2,0.5-0.5,0.6-0.8L21,8.5c-0.1,0.5-0.4,0.9-0.8,1.2c-0.4,0.3-0.8,0.4-1.4,0.4c-0.7,0-1.3-0.2-1.7-0.7
						c-0.4-0.5-0.6-1.1-0.6-1.9c0-0.9,0.2-1.5,0.7-2c0.4-0.5,1-0.8,1.8-0.8c0.6,0,1.2,0.2,1.5,0.6C20.9,5.6,21,6.2,21,6.9
						c0,0,0,0.1,0,0.1c0,0,0,0.1,0,0.1L17.5,7.2z M17.5,6.9l2.7-0.1V6.7c0-0.6-0.1-1-0.3-1.3C19.7,5.1,19.4,5,19,5
						c-0.5,0-0.8,0.2-1.1,0.5C17.7,5.8,17.5,6.3,17.5,6.9z"/>
					<path class="st12" d="M26.7,8.9c0,0.3,0,0.5,0.1,0.6c0.1,0.1,0.2,0.1,0.5,0.1V10c-0.2,0-0.4,0-0.6,0c-0.2,0-0.4,0-0.5,0
						s-0.4,0-0.6,0c-0.2,0-0.4,0-0.6,0V9.7c0.4,0,0.6-0.1,0.7-0.1c0.1-0.1,0.1-0.3,0.1-0.6V6.5c0-0.5-0.1-0.9-0.2-1.1
						c-0.2-0.2-0.4-0.3-0.7-0.3c-0.4,0-0.8,0.2-1.2,0.6c-0.4,0.4-0.5,0.8-0.5,1.2v2.1c0,0.3,0,0.5,0.1,0.6c0.1,0.1,0.3,0.1,0.5,0.1
						V10c-0.2,0-0.4,0-0.6,0c-0.2,0-0.4,0-0.6,0c-0.2,0-0.4,0-0.6,0c-0.2,0-0.4,0-0.6,0V9.7c0.4,0,0.6-0.1,0.7-0.2
						c0.1-0.1,0.1-0.3,0.1-0.6V5.8c0-0.3,0-0.5-0.1-0.5c-0.1-0.1-0.3-0.1-0.7-0.1V4.9c0.3,0,0.6,0,0.8-0.1c0.3,0,0.6-0.1,0.9-0.1
						v1.2C23.4,5.5,23.6,5.2,24,5c0.3-0.2,0.7-0.3,1.1-0.3c0.6,0,1,0.1,1.2,0.4c0.2,0.3,0.4,0.8,0.4,1.5V8.9z"/>
					<path class="st12" d="M30.7,5.1h-1.2c-0.6,0-1,0.1-1.2,0.2s-0.3,0.4-0.3,0.8h-0.2V4.8h4v0.1l-3.1,4.7h1.4c0.6,0,1-0.1,1.2-0.2
						c0.2-0.2,0.3-0.5,0.3-1h0.2V10h-4.2V9.9L30.7,5.1z"/>
					<path class="st12" d="M32.5,7.5c0-0.8,0.2-1.5,0.7-2c0.4-0.5,1-0.8,1.7-0.8c0.7,0,1.2,0.2,1.6,0.7c0.4,0.5,0.6,1.1,0.6,1.9
						c0,0.8-0.2,1.5-0.7,2c-0.4,0.5-1,0.8-1.7,0.8c-0.7,0-1.2-0.2-1.6-0.7C32.7,8.9,32.5,8.3,32.5,7.5z M34.8,5
						c-0.4,0-0.8,0.2-1,0.7s-0.4,1.1-0.4,1.8c0,0.7,0.1,1.3,0.4,1.7c0.2,0.4,0.6,0.6,1,0.6c0.4,0,0.8-0.2,1-0.6
						c0.2-0.4,0.4-1,0.4-1.7c0-0.8-0.1-1.4-0.4-1.8C35.6,5.2,35.3,5,34.8,5z"/>
					<path class="st12" d="M39.3,8.9c0,0.3,0.1,0.5,0.2,0.6c0.1,0.1,0.5,0.1,1,0.1l0,0.3c-0.3,0-0.6,0-0.8,0c-0.2,0-0.5,0-0.7,0
						c-0.2,0-0.4,0-0.7,0c-0.2,0-0.5,0-0.7,0V9.7c0.4,0,0.6-0.1,0.7-0.2c0.1-0.1,0.1-0.3,0.1-0.6V5.8c0-0.3,0-0.5-0.1-0.5
						c-0.1-0.1-0.3-0.1-0.7-0.1V4.9c0.3,0,0.6,0,0.8-0.1c0.3,0,0.6-0.1,0.9-0.1v1.4c0.2-0.5,0.4-0.8,0.6-1.1
						c0.2-0.2,0.5-0.4,0.8-0.4c0.2,0,0.4,0.1,0.5,0.2c0.1,0.1,0.2,0.3,0.2,0.6c0,0.2,0,0.3-0.1,0.4C41.2,6,41.1,6,41,6
						c-0.1,0-0.2,0-0.3-0.1c-0.1-0.1-0.1-0.2-0.1-0.4c0-0.1,0-0.2,0-0.2c0-0.1,0-0.2,0.1-0.3h0c-0.4,0-0.7,0.3-0.9,0.8
						s-0.4,1.1-0.4,1.8V8.9z"/>
				</g>
				<g>
					<path class="st12" d="M17.6,11.4L17.6,11.4c-0.2,0-0.3,0-0.3,0c0,0-0.1,0.1-0.1,0.2v2.1h0.6c0.2,0,0.4,0,0.5-0.1
						c0.1-0.1,0.1-0.3,0.1-0.5l0.1,0c0,0.1,0,0.3,0,0.4c0,0.1,0,0.3,0,0.4h-1.9v-0.1h0c0.1,0,0.2,0,0.2,0c0,0,0-0.1,0-0.2v-1.8
						c0-0.1,0-0.2,0-0.2c0,0-0.1,0-0.2,0h0v-0.1c0.1,0,0.1,0,0.2,0c0.1,0,0.2,0,0.3,0c0.1,0,0.2,0,0.3,0c0.1,0,0.2,0,0.2,0V11.4z"/>
					<path class="st12" d="M19.2,13.5c0,0.1,0,0.2,0,0.2c0,0,0.1,0,0.2,0v0.1c-0.1,0-0.2,0-0.2,0c-0.1,0-0.1,0-0.2,0s-0.1,0-0.2,0
						c-0.1,0-0.2,0-0.2,0l0-0.1c0.2,0,0.3,0,0.3,0c0,0,0-0.1,0-0.2v-1c0-0.1,0-0.2,0-0.2c0,0-0.1,0-0.2,0h-0.1v-0.1
						c0.1,0,0.2,0,0.3,0c0.1,0,0.2,0,0.3,0L19.2,13.5z M19.2,11.6c0,0,0,0.1-0.1,0.1c0,0-0.1,0.1-0.1,0.1c0,0-0.1,0-0.1,0
						s0-0.1,0-0.1c0,0,0-0.1,0.1-0.1c0,0,0.1-0.1,0.1-0.1c0,0,0.1,0,0.1,0C19.2,11.5,19.2,11.5,19.2,11.6z"/>
					<path class="st12" d="M20.1,13.5c0,0.1,0,0.2,0.1,0.2c0,0,0.1,0,0.3,0l0,0.1c-0.1,0-0.2,0-0.3,0c-0.1,0-0.2,0-0.2,0
						s-0.2,0-0.2,0s-0.2,0-0.3,0l0-0.1c0.2,0,0.3,0,0.3,0c0,0,0-0.1,0-0.2v-1.2h-0.3v-0.1h0.3V12c0-0.3,0.1-0.5,0.2-0.6
						s0.3-0.2,0.4-0.2c0.1,0,0.2,0,0.3,0.1c0.1,0.1,0.1,0.1,0.1,0.2c0,0.1,0,0.1,0,0.1c0,0-0.1,0-0.1,0c0,0-0.1,0-0.1,0
						c0,0,0-0.1,0-0.1c0,0,0-0.1,0-0.1c0,0,0-0.1,0.1-0.1c0,0-0.1-0.1-0.1-0.1c0,0-0.1,0-0.1,0c-0.1,0-0.2,0-0.3,0.1
						c-0.1,0.1-0.1,0.2-0.1,0.4v0.4h0.5v0.1h-0.5V13.5z"/>
					<path class="st12" d="M21,12.9L21,12.9c0,0.3,0,0.5,0.1,0.6c0.1,0.1,0.2,0.2,0.4,0.2c0.1,0,0.2,0,0.3-0.1
						c0.1-0.1,0.2-0.2,0.2-0.3l0.1,0c0,0.2-0.1,0.3-0.3,0.4s-0.3,0.1-0.5,0.1c-0.2,0-0.4-0.1-0.6-0.2c-0.1-0.2-0.2-0.4-0.2-0.6
						c0-0.3,0.1-0.5,0.2-0.7c0.1-0.2,0.3-0.3,0.6-0.3c0.2,0,0.4,0.1,0.5,0.2s0.2,0.3,0.2,0.5c0,0,0,0,0,0c0,0,0,0,0,0L21,12.9z
						 M21,12.8l0.9,0v0c0-0.2,0-0.3-0.1-0.4s-0.2-0.1-0.3-0.1c-0.2,0-0.3,0.1-0.4,0.2C21,12.5,21,12.6,21,12.8z"/>
					<path class="st12" d="M23.4,13.8L23.4,13.8c0-0.2,0-0.3,0-0.4c0,0,0-0.1,0-0.2c0-0.1,0-0.1,0-0.2l0.1,0c0,0.2,0.1,0.4,0.2,0.6
						c0.1,0.1,0.3,0.2,0.5,0.2c0.2,0,0.3,0,0.4-0.1c0.1-0.1,0.1-0.2,0.1-0.3c0-0.1,0-0.2,0-0.2c0-0.1-0.1-0.1-0.1-0.1
						c-0.1-0.1-0.2-0.1-0.4-0.2c0,0-0.1,0-0.1,0c0,0,0,0-0.1,0c-0.2-0.1-0.4-0.2-0.5-0.3c-0.1-0.1-0.1-0.1-0.1-0.2
						c0-0.1,0-0.2,0-0.3c0-0.2,0.1-0.4,0.2-0.5c0.1-0.1,0.3-0.2,0.6-0.2c0.1,0,0.2,0,0.4,0.1c0.1,0,0.2,0.1,0.3,0.2l0-0.1H25
						c0,0.1,0,0.1,0,0.2c0,0.1,0,0.1,0,0.2c0,0.1,0,0.1,0,0.2c0,0.1,0,0.1,0,0.2h-0.1c0-0.2-0.1-0.4-0.2-0.5
						c-0.1-0.1-0.3-0.2-0.5-0.2c-0.2,0-0.3,0-0.4,0.1c-0.1,0.1-0.1,0.2-0.1,0.4c0,0.1,0,0.2,0.1,0.3s0.2,0.1,0.3,0.2
						c0.1,0,0.2,0.1,0.3,0.1c0.2,0.1,0.3,0.1,0.3,0.1c0.1,0.1,0.2,0.2,0.3,0.3c0.1,0.1,0.1,0.2,0.1,0.3c0,0.2-0.1,0.4-0.2,0.5
						c-0.2,0.1-0.4,0.2-0.6,0.2c-0.1,0-0.3,0-0.4-0.1c-0.1,0-0.2-0.1-0.3-0.2L23.4,13.8L23.4,13.8z"/>
					<path class="st12" d="M26.8,13.4c0,0.2-0.1,0.3-0.3,0.4c-0.1,0.1-0.3,0.1-0.5,0.1c-0.2,0-0.4-0.1-0.6-0.2
						c-0.1-0.2-0.2-0.4-0.2-0.6c0-0.3,0.1-0.5,0.2-0.7c0.2-0.2,0.4-0.3,0.6-0.3c0.2,0,0.3,0,0.4,0.1c0.1,0.1,0.2,0.2,0.2,0.3
						c0,0.1,0,0.1,0,0.1c0,0-0.1,0-0.1,0c0,0-0.1,0-0.1-0.1c0,0,0-0.1,0-0.1c0,0,0-0.1,0-0.1c0,0,0-0.1,0-0.1c0-0.1-0.1-0.1-0.1-0.1
						c-0.1,0-0.1,0-0.2,0c-0.2,0-0.3,0.1-0.4,0.2c-0.1,0.2-0.2,0.3-0.2,0.6c0,0.2,0,0.4,0.1,0.5c0.1,0.1,0.2,0.2,0.4,0.2
						c0.1,0,0.2,0,0.3-0.1C26.7,13.5,26.7,13.5,26.8,13.4L26.8,13.4z"/>
					<path class="st12" d="M27.5,13.5c0,0.1,0,0.2,0,0.2c0,0,0.1,0,0.2,0v0.1c-0.1,0-0.2,0-0.2,0s-0.1,0-0.2,0c-0.1,0-0.1,0-0.2,0
						c-0.1,0-0.2,0-0.2,0l0-0.1c0.2,0,0.3,0,0.3,0c0,0,0-0.1,0-0.2v-1c0-0.1,0-0.2,0-0.2c0,0-0.1,0-0.2,0h-0.1v-0.1
						c0.1,0,0.2,0,0.3,0c0.1,0,0.2,0,0.3,0L27.5,13.5z M27.5,11.6c0,0,0,0.1-0.1,0.1c0,0-0.1,0.1-0.1,0.1c0,0-0.1,0-0.1,0
						c0,0,0-0.1,0-0.1c0,0,0-0.1,0.1-0.1c0,0,0.1-0.1,0.1-0.1c0,0,0.1,0,0.1,0C27.5,11.5,27.5,11.5,27.5,11.6z"/>
					<path class="st12" d="M28.2,12.9L28.2,12.9c0,0.3,0,0.5,0.1,0.6c0.1,0.1,0.2,0.2,0.4,0.2c0.1,0,0.2,0,0.3-0.1
						c0.1-0.1,0.2-0.2,0.2-0.3l0.1,0c0,0.2-0.1,0.3-0.3,0.4c-0.1,0.1-0.3,0.1-0.5,0.1c-0.2,0-0.4-0.1-0.6-0.2
						c-0.1-0.2-0.2-0.4-0.2-0.6c0-0.3,0.1-0.5,0.2-0.7c0.1-0.2,0.3-0.3,0.6-0.3c0.2,0,0.4,0.1,0.5,0.2s0.2,0.3,0.2,0.5c0,0,0,0,0,0
						c0,0,0,0,0,0L28.2,12.9z M28.2,12.8l0.9,0v0c0-0.2,0-0.3-0.1-0.4c-0.1-0.1-0.2-0.1-0.3-0.1c-0.2,0-0.3,0.1-0.4,0.2
						C28.3,12.5,28.3,12.6,28.2,12.8z"/>
					<path class="st12" d="M31.3,13.5c0,0.1,0,0.2,0,0.2s0.1,0,0.2,0v0.1c-0.1,0-0.1,0-0.2,0c-0.1,0-0.1,0-0.2,0s-0.1,0-0.2,0
						c-0.1,0-0.1,0-0.2,0v-0.1c0.1,0,0.2,0,0.2,0c0,0,0-0.1,0-0.2v-0.8c0-0.2,0-0.3-0.1-0.4c-0.1-0.1-0.1-0.1-0.2-0.1
						c-0.1,0-0.3,0.1-0.4,0.2c-0.1,0.1-0.2,0.3-0.2,0.4v0.7c0,0.1,0,0.2,0,0.2c0,0,0.1,0,0.2,0v0.1c-0.1,0-0.1,0-0.2,0
						c-0.1,0-0.1,0-0.2,0c-0.1,0-0.1,0-0.2,0s-0.1,0-0.2,0v-0.1c0.1,0,0.2,0,0.2-0.1c0,0,0-0.1,0-0.2v-1c0-0.1,0-0.2,0-0.2
						c0,0-0.1,0-0.2,0v-0.1c0.1,0,0.2,0,0.3,0c0.1,0,0.2,0,0.3,0v0.4c0.1-0.1,0.2-0.2,0.3-0.3c0.1-0.1,0.2-0.1,0.4-0.1
						c0.2,0,0.3,0,0.4,0.1c0.1,0.1,0.1,0.3,0.1,0.5V13.5z"/>
					<path class="st12" d="M33.2,13.4c0,0.2-0.1,0.3-0.3,0.4c-0.1,0.1-0.3,0.1-0.5,0.1c-0.2,0-0.4-0.1-0.6-0.2
						c-0.1-0.2-0.2-0.4-0.2-0.6c0-0.3,0.1-0.5,0.2-0.7c0.2-0.2,0.4-0.3,0.6-0.3c0.2,0,0.3,0,0.4,0.1c0.1,0.1,0.2,0.2,0.2,0.3
						c0,0.1,0,0.1,0,0.1c0,0-0.1,0-0.1,0c0,0-0.1,0-0.1-0.1c0,0,0-0.1,0-0.1c0,0,0-0.1,0-0.1c0,0,0-0.1,0-0.1c0-0.1-0.1-0.1-0.1-0.1
						c-0.1,0-0.1,0-0.2,0c-0.2,0-0.3,0.1-0.4,0.2C32.1,12.6,32,12.8,32,13c0,0.2,0,0.4,0.1,0.5c0.1,0.1,0.2,0.2,0.4,0.2
						c0.1,0,0.2,0,0.3-0.1C33,13.5,33.1,13.5,33.2,13.4L33.2,13.4z"/>
					<path class="st12" d="M33.7,12.9L33.7,12.9c0,0.3,0,0.5,0.1,0.6c0.1,0.1,0.2,0.2,0.4,0.2c0.1,0,0.2,0,0.3-0.1
						c0.1-0.1,0.2-0.2,0.2-0.3l0.1,0c0,0.2-0.1,0.3-0.3,0.4s-0.3,0.1-0.5,0.1c-0.2,0-0.4-0.1-0.6-0.2c-0.1-0.2-0.2-0.4-0.2-0.6
						c0-0.3,0.1-0.5,0.2-0.7s0.3-0.3,0.6-0.3c0.2,0,0.4,0.1,0.5,0.2c0.1,0.1,0.2,0.3,0.2,0.5c0,0,0,0,0,0c0,0,0,0,0,0L33.7,12.9z
						 M33.7,12.8l0.9,0v0c0-0.2,0-0.3-0.1-0.4c-0.1-0.1-0.2-0.1-0.3-0.1c-0.2,0-0.3,0.1-0.4,0.2C33.7,12.5,33.7,12.6,33.7,12.8z"/>
					<path class="st12" d="M35.1,13.8c0-0.1,0-0.2,0-0.2c0-0.1,0-0.2,0-0.2v-0.2h0.1c0,0.2,0.1,0.3,0.1,0.4c0.1,0.1,0.2,0.1,0.4,0.1
						c0.1,0,0.2,0,0.3-0.1c0.1-0.1,0.1-0.1,0.1-0.2c0-0.1-0.1-0.3-0.4-0.4l0,0c-0.2-0.1-0.3-0.1-0.4-0.2c-0.1-0.1-0.1-0.2-0.1-0.3
						c0-0.2,0.1-0.3,0.2-0.4c0.1-0.1,0.2-0.1,0.4-0.1c0.1,0,0.2,0,0.2,0c0.1,0,0.1,0.1,0.2,0.1l0-0.1l0.1,0c0,0.1,0,0.1,0,0.2
						c0,0,0,0.1,0,0.1c0,0,0,0.1,0,0.1c0,0,0,0.1,0,0.1h-0.1c0-0.1-0.1-0.3-0.1-0.3c-0.1-0.1-0.2-0.1-0.3-0.1c-0.1,0-0.2,0-0.2,0.1
						c-0.1,0.1-0.1,0.1-0.1,0.2c0,0.1,0.1,0.2,0.4,0.3l0,0c0.2,0.1,0.3,0.1,0.4,0.2c0.1,0.1,0.1,0.2,0.1,0.3c0,0.2-0.1,0.3-0.2,0.4
						c-0.1,0.1-0.3,0.1-0.5,0.1c-0.1,0-0.2,0-0.3,0c-0.1,0-0.1-0.1-0.2-0.1L35.1,13.8L35.1,13.8z"/>
				</g>
			</g>
		</g>
	</g>
	<g>
		<g>
			<path class="st12" d="M41.9,3.8V3.1h-0.3V3h0.6v0.1H42L41.9,3.8L41.9,3.8z"/>
			<path class="st12" d="M43.1,3.8V3.1h0l-0.3,0.6h-0.1l-0.3-0.6h0v0.6h-0.1V3h0.1l0.3,0.7h0L43,3h0.1L43.1,3.8L43.1,3.8z"/>
		</g>
	</g>
</g>
</svg>
