<?xml version="1.0" encoding="UTF-8"?><svg id="Layer_1" xmlns="http://www.w3.org/2000/svg" viewBox="0 0 516.52 201.13"><defs><style>.cls-1{fill:#f3a700;}.cls-2{fill:#e90085;}.cls-3{fill:#e18000;}.cls-4{fill:#c80065;}.cls-5{fill:#00b69b;}.cls-6{fill:#83899a;}.cls-7{fill:#009a80;}.cls-8{fill:#9ba2b6;}</style></defs><rect class="cls-4" x="37.45" y="54.5" width="26.62" height="44.11" transform="translate(101.51 153.11) rotate(-180)"/><circle class="cls-2" cx="37.45" cy="76.55" r="22.05"/><rect class="cls-6" x="37.45" y="142.72" width="26.62" height="44.11" transform="translate(101.51 329.54) rotate(-180)"/><circle class="cls-8" cx="37.45" cy="164.77" r="22.05"/><rect class="cls-7" x="64.06" y="10.39" width="26.62" height="44.11"/><circle class="cls-5" cx="90.68" cy="32.45" r="22.05"/><rect class="cls-3" x="64.06" y="98.61" width="26.62" height="44.11"/><circle class="cls-1" cx="90.68" cy="120.66" r="22.05"/><path class="cls-6" d="m157.07,73.45h9.47c5.64,0,9.23-.86,10.77-2.58,1.54-1.72,2.43-5.47,2.66-11.26h2.9c-.12,2.87-.21,5.78-.27,8.71-.06,2.93-.09,5.84-.09,8.71s.03,5.68.09,8.53c.06,2.86.15,5.68.27,8.48l-2.9.06c-.24-7.07-1.12-11.6-2.66-13.6-1.54-2-5.13-2.99-10.77-2.99h-9.47v29.35c0,4.43.58,7.21,1.75,8.33,1.16,1.12,3.74,1.68,7.72,1.68h2.07v3.95h-32.49v-3.95h.83c3.75,0,6.18-.56,7.31-1.68,1.12-1.12,1.69-3.89,1.69-8.33v-60.14c0-4.47-.55-7.25-1.66-8.33s-3.55-1.62-7.34-1.62h-.83v-4.01h64.45v5.27c0,2.99.08,8.17.24,15.51v1.86h-3.02c-.04-7.07-1.58-11.94-4.62-14.62-3.04-2.67-8.8-4.01-17.28-4.01h-18.82v36.66Z"/><path class="cls-6" d="m204.17,89.2v2.7c0,8.03,1.6,14.08,4.79,18.15,3.2,4.07,7.95,6.11,14.26,6.11,4.3,0,8.03-1.1,11.18-3.29,3.16-2.2,5.52-5.35,7.1-9.46l2.55,1.02c-1.7,5.79-4.67,10.22-8.91,13.3-4.24,3.07-9.56,4.61-15.95,4.61-8.13,0-14.46-2.63-19-7.88-4.54-5.25-6.81-12.57-6.81-21.95s2.47-17.35,7.4-23.06c4.93-5.71,11.56-8.57,19.88-8.57,7.34,0,13.07,2.19,17.19,6.56,4.12,4.37,6.18,10.47,6.18,18.3,0,.24-.02.64-.06,1.2-.04.56-.06.98-.06,1.26l-39.77,1.02Zm0-3.35l30.66-1.2v-1.02c0-6.39-1.15-11.23-3.46-14.53-2.31-3.29-5.71-4.94-10.21-4.94-5.17,0-9.21,1.88-12.13,5.63-2.92,3.75-4.54,9.1-4.85,16.05Z"/><path class="cls-6" d="m308.02,109.15c0,3.75.42,6,1.27,6.74.85.74,2.81,1.25,5.89,1.53v3.41c-2.37-.2-4.61-.35-6.75-.45-2.13-.1-4.2-.15-6.21-.15s-4.09.05-6.24.15c-2.15.1-4.55.25-7.19.45v-3.41c4.46-.32,7.18-.88,8.17-1.68.99-.8,1.48-2.99,1.48-6.59v-27.43c0-5.67-.86-9.79-2.57-12.37-1.71-2.58-4.45-3.86-8.2-3.86-4.97,0-9.47,2.12-13.49,6.35-4.02,4.23-6.04,8.83-6.04,13.78v23.54c0,3.67.43,5.9,1.3,6.68.87.78,2.86,1.31,5.98,1.59v3.41c-2.37-.2-4.63-.35-6.78-.45-2.15-.1-4.25-.15-6.3-.15s-4.05.05-6.24.15c-2.19.1-4.59.25-7.19.45v-3.41c4.54-.32,7.31-.89,8.31-1.71,1.01-.82,1.51-3,1.51-6.56v-35.04c0-3.31-.55-5.39-1.66-6.23-1.1-.84-3.91-1.26-8.4-1.26v-3.41c3.2-.2,6.38-.47,9.56-.81s6.4-.73,9.68-1.17v13.96c2.64-4.63,5.8-8.12,9.47-10.45,3.67-2.34,7.79-3.5,12.37-3.5,6.59,0,11.28,1.66,14.09,4.97,2.8,3.31,4.2,8.96,4.2,16.95v25.99Z"/><path class="cls-6" d="m354.11,65.72h-13.26c-6.63,0-10.99.81-13.08,2.43-2.09,1.62-3.3,4.66-3.61,9.13h-2.55v-14.97h45.45v1.38l-34.68,53.73h15.74c7.06,0,11.6-.94,13.61-2.82,2.01-1.88,3.02-5.57,3.02-11.08h2.66v17.31h-48.11v-1.2l34.8-53.91Z"/><path class="cls-6" d="m374.22,92.62c0-9.54,2.48-17.16,7.43-22.85,4.95-5.69,11.53-8.53,19.74-8.53,7.61,0,13.7,2.66,18.26,7.97,4.56,5.31,6.84,12.46,6.84,21.44,0,9.5-2.5,17.09-7.49,22.76-4.99,5.67-11.59,8.51-19.8,8.51-7.65,0-13.73-2.64-18.23-7.91-4.5-5.27-6.75-12.4-6.75-21.38Zm26.25-28.09c-4.92,0-8.75,2.49-11.49,7.46-2.74,4.97-4.11,11.93-4.11,20.87,0,8.15,1.35,14.49,4.05,19.05,2.7,4.55,6.43,6.83,11.19,6.83s8.67-2.42,11.49-7.25c2.82-4.83,4.23-11.44,4.23-19.83s-1.34-15.3-4.02-20.03c-2.68-4.73-6.46-7.1-11.34-7.1Z"/><path class="cls-6" d="m450.67,109.15c0,3.43.71,5.65,2.13,6.65s5.29,1.54,11.6,1.62l-.06,3.41c-3.35-.2-6.42-.35-9.2-.45-2.78-.1-5.4-.15-7.84-.15s-5.04.05-7.66.15c-2.62.1-5.36.25-8.2.45v-3.41c4.54-.32,7.31-.89,8.31-1.71,1.01-.82,1.51-3,1.51-6.56v-35.04c0-3.31-.55-5.39-1.66-6.23-1.1-.84-3.91-1.26-8.4-1.26v-3.41c3.2-.2,6.38-.47,9.56-.81s6.4-.73,9.68-1.17v16.29c2.17-5.43,4.62-9.5,7.34-12.22,2.72-2.72,5.7-4.07,8.94-4.07,2.52,0,4.59.85,6.18,2.55,1.6,1.7,2.4,3.86,2.4,6.5,0,1.88-.44,3.38-1.3,4.49-.87,1.12-2.05,1.68-3.55,1.68s-2.66-.49-3.49-1.47c-.83-.98-1.24-2.39-1.24-4.22,0-.84.08-1.76.24-2.76.16-1,.35-2.04.59-3.11h-.42c-4.02,0-7.6,2.84-10.74,8.51-3.14,5.67-4.7,12.4-4.7,20.18v15.57Z"/><path class="cls-6" d="m205.18,136.87h-.77c-1.37,0-2.24.18-2.62.54s-.57,1.28-.57,2.77v23.36h6.82c2.8,0,4.71-.56,5.74-1.67,1.03-1.11,1.55-3.18,1.58-6.19l1.2-.02c-.08,1.53-.15,3.06-.21,4.6-.06,1.54-.1,3.07-.13,4.6h-21.98v-1.32h.28c1.25,0,2.06-.19,2.43-.56s.56-1.3.56-2.77v-20.03c0-1.49-.18-2.41-.55-2.77s-1.18-.54-2.44-.54h-.28v-1.34c.8.05,1.65.09,2.53.12.89.03,1.84.04,2.87.04s2.01-.01,2.92-.04,1.78-.07,2.62-.12v1.34Z"/><path class="cls-6" d="m223.15,160.96c0,1.29.18,2.06.54,2.32s1.29.4,2.79.43v1.14c-.93-.07-1.83-.12-2.68-.15s-1.68-.05-2.48-.05-1.64.02-2.51.05c-.87.03-1.8.08-2.79.15l-.02-1.14c1.92-.09,3.06-.27,3.42-.54s.54-1,.54-2.21v-11.67c0-1.09-.18-1.78-.54-2.06s-1.26-.43-2.69-.43h-.73v-1.14c1.22-.05,2.42-.13,3.61-.24s2.36-.25,3.53-.42l.02,15.96Zm.24-21.64c0,.55-.25,1.06-.74,1.54-.49.48-1.04.72-1.65.72-.53,0-.94-.16-1.24-.47s-.45-.74-.45-1.29.25-1.03.74-1.51,1.02-.71,1.57-.71,1,.15,1.31.45c.31.3.46.72.46,1.27Z"/><path class="cls-6" d="m233.61,160.96c0,1.29.19,2.06.57,2.32s1.64.4,3.78.43l-.02,1.14c-1.1-.07-2.13-.12-3.08-.15-.95-.03-1.86-.05-2.71-.05s-1.73.02-2.63.05-1.86.08-2.89.15l-.02-1.14c1.84-.09,2.93-.27,3.28-.54.35-.27.52-1,.52-2.21v-13.72h-3.72v-1.1h3.72v-2.45c0-2.98.59-5.26,1.76-6.83,1.18-1.58,2.87-2.36,5.09-2.36,1.41,0,2.57.37,3.48,1.1s1.37,1.65,1.37,2.75c0,.61-.14,1.09-.41,1.44s-.66.52-1.16.52c-.46,0-.83-.14-1.09-.43-.27-.29-.4-.67-.4-1.17,0-.37.07-.72.2-1.06.13-.33.33-.66.61-.98-.29-.36-.64-.63-1.05-.8-.41-.17-.9-.26-1.45-.26-1.31,0-2.27.51-2.86,1.52-.59,1.01-.89,2.65-.89,4.93v4.09h5.64v1.1h-5.64v13.72Z"/><path class="cls-6" d="m243.33,154.32v.9c0,2.67.53,4.69,1.6,6.04,1.07,1.36,2.65,2.03,4.75,2.03,1.43,0,2.67-.37,3.73-1.1,1.05-.73,1.84-1.78,2.36-3.15l.85.34c-.57,1.93-1.55,3.4-2.97,4.43-1.41,1.02-3.18,1.54-5.31,1.54-2.71,0-4.82-.87-6.33-2.62-1.51-1.75-2.27-4.19-2.27-7.31s.82-5.78,2.46-7.68,3.85-2.85,6.62-2.85c2.44,0,4.35.73,5.73,2.18,1.37,1.46,2.06,3.49,2.06,6.09,0,.08,0,.21-.02.4s-.02.33-.02.42l-13.24.34Zm0-1.12l10.21-.4v-.34c0-2.13-.38-3.74-1.15-4.84-.77-1.1-1.9-1.65-3.4-1.65-1.72,0-3.07.63-4.04,1.88-.97,1.25-1.51,3.03-1.62,5.35Z"/><path class="cls-6" d="m270.97,164.08v-.24c.05-2.01.08-3.5.08-4.49,0-.56,0-1.16-.02-1.82s-.03-1.56-.06-2.71l1.16-.02c.08,2.82.83,5.04,2.25,6.67,1.42,1.63,3.31,2.44,5.68,2.44,1.8,0,3.23-.49,4.3-1.47,1.06-.98,1.6-2.28,1.6-3.92,0-.94-.12-1.73-.37-2.36-.25-.63-.64-1.15-1.16-1.57-.92-.74-2.5-1.55-4.75-2.41-.33-.12-.57-.21-.73-.28-.2-.08-.48-.19-.85-.32-2.38-.92-4.11-1.88-5.18-2.87-.66-.61-1.15-1.34-1.48-2.19-.33-.85-.49-1.82-.49-2.91,0-2.54.8-4.58,2.41-6.13,1.61-1.55,3.75-2.32,6.42-2.32,1.45,0,2.78.2,4.02.6,1.23.4,2.41,1.02,3.53,1.86l.33-1.52h.87c-.03.63-.05,1.27-.07,1.93s-.03,1.34-.03,2.03,0,1.36.03,2.03.04,1.38.07,2.09h-.95c-.26-2.55-1.01-4.47-2.25-5.74-1.23-1.27-2.95-1.91-5.14-1.91-1.76,0-3.17.51-4.23,1.53-1.06,1.02-1.59,2.36-1.59,4.02,0,1.28.36,2.35,1.07,3.21s1.86,1.61,3.44,2.23c.75.29,1.75.68,3.02,1.16,1.87.7,3.04,1.22,3.53,1.54,1.54.97,2.63,1.97,3.27,3.01.64,1.04.97,2.28.97,3.73,0,2.42-.89,4.4-2.68,5.93-1.79,1.54-4.11,2.3-6.96,2.3-1.54,0-2.92-.24-4.15-.72-1.23-.48-2.41-1.23-3.54-2.25l-.43,1.84h-.93Z"/><path class="cls-6" d="m309.95,159.39c-.54,1.9-1.52,3.37-2.93,4.41-1.41,1.04-3.15,1.56-5.21,1.56-2.69,0-4.83-.87-6.44-2.6-1.61-1.74-2.41-4.07-2.41-7.01,0-3.23.9-5.86,2.7-7.88,1.8-2.02,4.12-3.03,6.97-3.03,1.91,0,3.5.52,4.79,1.55,1.28,1.03,1.92,2.29,1.92,3.78,0,.59-.14,1.05-.4,1.4-.27.35-.64.52-1.09.52s-.84-.19-1.11-.58-.4-.93-.4-1.64c0-.33.04-.66.13-1,.09-.33.21-.68.38-1.04-.41-.59-.95-1.02-1.63-1.32s-1.48-.44-2.41-.44c-1.87,0-3.38.85-4.54,2.55s-1.74,3.96-1.74,6.76c0,2.53.57,4.48,1.7,5.85,1.13,1.38,2.73,2.06,4.81,2.06,1.43,0,2.67-.37,3.73-1.1,1.05-.73,1.84-1.78,2.36-3.15l.85.34Z"/><path class="cls-6" d="m317.52,160.96c0,1.29.18,2.06.54,2.32s1.29.4,2.79.43v1.14c-.93-.07-1.83-.12-2.68-.15s-1.68-.05-2.48-.05-1.64.02-2.51.05c-.87.03-1.8.08-2.79.15l-.02-1.14c1.92-.09,3.06-.27,3.42-.54s.54-1,.54-2.21v-11.67c0-1.09-.18-1.78-.54-2.06s-1.26-.43-2.69-.43h-.73v-1.14c1.22-.05,2.42-.13,3.61-.24s2.36-.25,3.53-.42l.02,15.96Zm.24-21.64c0,.55-.25,1.06-.74,1.54-.49.48-1.04.72-1.65.72-.53,0-.94-.16-1.24-.47s-.45-.74-.45-1.29.25-1.03.74-1.51,1.02-.71,1.57-.71,1,.15,1.31.45c.31.3.46.72.46,1.27Z"/><path class="cls-6" d="m325.83,154.32v.9c0,2.67.53,4.69,1.6,6.04,1.07,1.36,2.65,2.03,4.75,2.03,1.43,0,2.67-.37,3.73-1.1,1.05-.73,1.84-1.78,2.36-3.15l.85.34c-.57,1.93-1.55,3.4-2.97,4.43-1.41,1.02-3.18,1.54-5.31,1.54-2.71,0-4.82-.87-6.33-2.62-1.51-1.75-2.27-4.19-2.27-7.31s.82-5.78,2.46-7.68,3.85-2.85,6.62-2.85c2.44,0,4.35.73,5.73,2.18s2.06,3.49,2.06,6.09c0,.08,0,.21-.02.4s-.02.33-.02.42l-13.24.34Zm0-1.12l10.21-.4v-.34c0-2.13-.38-3.74-1.15-4.84s-1.9-1.65-3.4-1.65c-1.72,0-3.07.63-4.04,1.88-.97,1.25-1.51,3.03-1.62,5.35Z"/><path class="cls-6" d="m360.42,160.96c0,1.25.14,2,.42,2.24s.94.42,1.96.51v1.14c-.79-.07-1.54-.12-2.25-.15-.71-.03-1.4-.05-2.07-.05s-1.36.02-2.08.05c-.72.03-1.51.08-2.39.15v-1.14c1.48-.11,2.39-.29,2.72-.56.33-.27.49-1,.49-2.19v-9.14c0-1.89-.29-3.26-.86-4.12-.57-.86-1.48-1.29-2.73-1.29-1.66,0-3.15.7-4.49,2.11-1.34,1.41-2.01,2.94-2.01,4.59v7.84c0,1.22.14,1.96.43,2.22s.95.44,1.99.53v1.14c-.79-.07-1.54-.12-2.26-.15-.72-.03-1.42-.05-2.1-.05s-1.35.02-2.08.05-1.53.08-2.39.15v-1.14c1.51-.11,2.43-.3,2.77-.57.34-.27.5-1,.5-2.18v-11.67c0-1.1-.18-1.8-.55-2.07s-1.3-.42-2.8-.42v-1.14c1.07-.07,2.13-.16,3.18-.27,1.06-.11,2.13-.24,3.22-.39v4.65c.88-1.54,1.93-2.7,3.15-3.48,1.22-.78,2.6-1.17,4.12-1.17,2.19,0,3.76.55,4.69,1.66.93,1.1,1.4,2.99,1.4,5.65v8.66Z"/><path class="cls-6" d="m382.06,159.39c-.54,1.9-1.52,3.37-2.93,4.41-1.41,1.04-3.15,1.56-5.21,1.56-2.69,0-4.83-.87-6.44-2.6-1.61-1.74-2.41-4.07-2.41-7.01,0-3.23.9-5.86,2.7-7.88,1.8-2.02,4.12-3.03,6.97-3.03,1.91,0,3.5.52,4.79,1.55,1.28,1.03,1.92,2.29,1.92,3.78,0,.59-.14,1.05-.4,1.4-.27.35-.64.52-1.09.52s-.84-.19-1.11-.58-.4-.93-.4-1.64c0-.33.04-.66.13-1,.09-.33.21-.68.38-1.04-.41-.59-.95-1.02-1.63-1.32s-1.48-.44-2.41-.44c-1.87,0-3.38.85-4.54,2.55-1.16,1.7-1.74,3.96-1.74,6.76,0,2.53.57,4.48,1.7,5.85,1.13,1.38,2.73,2.06,4.81,2.06,1.43,0,2.67-.37,3.73-1.1,1.05-.73,1.84-1.78,2.36-3.15l.85.34Z"/><path class="cls-6" d="m387.55,154.32v.9c0,2.67.53,4.69,1.6,6.04,1.07,1.36,2.65,2.03,4.75,2.03,1.43,0,2.67-.37,3.73-1.1,1.05-.73,1.84-1.78,2.36-3.15l.85.34c-.57,1.93-1.55,3.4-2.97,4.43-1.41,1.02-3.18,1.54-5.31,1.54-2.71,0-4.82-.87-6.33-2.62-1.51-1.75-2.27-4.19-2.27-7.31s.82-5.78,2.46-7.68,3.85-2.85,6.62-2.85c2.44,0,4.35.73,5.73,2.18s2.06,3.49,2.06,6.09c0,.08,0,.21-.02.4s-.02.33-.02.42l-13.24.34Zm0-1.12l10.21-.4v-.34c0-2.13-.38-3.74-1.15-4.84s-1.9-1.65-3.4-1.65c-1.72,0-3.07.63-4.04,1.88-.97,1.25-1.51,3.03-1.62,5.35Z"/><path class="cls-6" d="m403.55,164.85c.03-.85.05-1.71.07-2.58.02-.87.03-1.74.03-2.6v-1.72h1.01c.11,2.05.62,3.58,1.56,4.6s2.29,1.53,4.06,1.53c1.3,0,2.31-.31,3.02-.93.71-.62,1.07-1.49,1.07-2.62,0-1.66-1.65-3-4.95-4.01l-.37-.12c-2.33-.7-3.86-1.44-4.59-2.21s-1.1-1.86-1.1-3.25c0-1.81.58-3.25,1.74-4.32,1.16-1.07,2.72-1.61,4.68-1.61,1.01,0,1.94.14,2.78.43.84.29,1.6.71,2.27,1.29l.31-1.16.89.02c-.04.81-.06,1.41-.07,1.8s0,.75,0,1.1,0,.72.02,1.12.03.95.04,1.66h-.95c-.21-1.68-.77-2.95-1.67-3.81s-2.13-1.3-3.68-1.3c-1.1,0-1.99.3-2.66.91-.67.61-1.01,1.41-1.01,2.4,0,1.54,1.6,2.81,4.79,3.81l.37.12c2.29.72,3.85,1.5,4.7,2.35s1.27,1.98,1.27,3.39c0,1.85-.64,3.32-1.92,4.43s-3.01,1.66-5.17,1.66c-1.03,0-1.97-.14-2.85-.41-.87-.27-1.7-.69-2.47-1.27l-.26,1.32h-.95Z"/><path class="cls-6" d="m483.43,50.32v-8.58h-3.37v-1.56h8.62v1.56h-3.37v8.58h-1.87Zm16.01,0v-7.14h-.04l-3.11,7.05h-1.29l-3.1-7.05h-.06v7.14h-1.69v-10.14h2.17l3.3,7.58h.06l3.29-7.58h2.17v10.14h-1.69Z"/></svg>